<?xml version="1.0" standalone="no"?>
<!DOCTYPE svg PUBLIC "-//W3C//DTD SVG 20010904//EN"
 "http://www.w3.org/TR/2001/REC-SVG-20010904/DTD/svg10.dtd">
<svg version="1.0" xmlns="http://www.w3.org/2000/svg"
 width="200.000000pt" height="200.000000pt" viewBox="0 0 1414.000000 2000.000000"
 preserveAspectRatio="xMidYMid meet">

<g transform="translate(0.000000,2000.000000) scale(0.100000,-0.100000)"
fill="#000000" stroke="none">
<path d="M6850 14740 c-310 -24 -656 -144 -945 -328 -179 -115 -394 -307 -525
-472 -299 -376 -470 -847 -470 -1299 0 -222 47 -348 180 -482 127 -128 259
-184 435 -184 243 0 445 127 558 351 37 73 54 153 61 284 8 145 35 260 90 375
120 253 343 435 621 506 130 33 312 32 447 -4 341 -90 596 -356 674 -702 24
-106 24 -304 1 -397 -81 -324 -304 -571 -612 -676 -84 -28 -153 -40 -280 -47
-129 -7 -205 -25 -289 -67 -148 -73 -260 -205 -313 -366 l-28 -87 0 -790 c0
-884 -3 -845 73 -989 47 -90 154 -200 243 -249 122 -68 295 -94 431 -66 176
37 341 167 424 334 60 123 64 157 64 672 l0 461 93 31 c182 61 430 194 599
322 103 78 290 259 371 359 240 297 409 685 461 1059 21 147 21 444 0 593
-100 730 -560 1353 -1230 1669 -340 161 -707 222 -1134 189z"/>
<path d="M7010 8569 c-86 -8 -142 -24 -215 -61 -211 -107 -338 -315 -338 -553
0 -170 58 -309 178 -431 83 -84 172 -137 280 -164 323 -83 647 97 748 415 29
93 31 272 3 355 -68 201 -214 352 -399 414 -64 22 -177 32 -257 25z"/>
</g>
</svg>
