<svg width="126" height="151" viewBox="0 0 126 151" fill="none" xmlns="http://www.w3.org/2000/svg">
<path d="M41.8675 64.5799C41.8701 64.5751 41.8727 64.57 41.8753 64.5645C41.8769 64.561 41.8785 64.5576 41.88 64.5541M41.8675 64.5799C41.8414 64.6275 41.8142 64.6385 41.7925 64.6258M41.8675 64.5799C41.868 64.579 41.8685 64.5781 41.8689 64.5771M41.8675 64.5799C41.835 64.6411 41.8068 64.6492 41.7873 64.6266M41.7925 64.6258C41.7919 64.6255 41.7913 64.6251 41.7907 64.6247M41.7925 64.6258C41.8145 64.6386 41.8424 64.6269 41.8689 64.5771M41.7925 64.6258C41.7989 64.6243 41.8051 64.621 41.8108 64.6163M41.7925 64.6258C41.7924 64.6258 41.7925 64.6258 41.7925 64.6258ZM41.7925 64.6258C41.7908 64.6262 41.789 64.6264 41.7873 64.6266M41.7907 64.6247C41.7866 64.6221 41.7827 64.6186 41.779 64.6143M41.7907 64.6247C41.7863 64.6219 41.7824 64.618 41.7785 64.6132M41.7907 64.6247C41.7973 64.6234 41.8042 64.6204 41.8108 64.6163M41.7907 64.6247C41.7906 64.6247 41.7908 64.6247 41.7907 64.6247ZM41.7907 64.6247C41.7892 64.625 41.7877 64.6252 41.7863 64.6254M41.779 64.6143C41.7739 64.6083 41.7693 64.6007 41.7652 64.592M41.779 64.6143C41.7813 64.6185 41.7837 64.6222 41.7863 64.6254M41.779 64.6143C41.7789 64.6139 41.7787 64.6136 41.7785 64.6132M41.7652 64.592C41.7428 64.5432 41.7395 64.4557 41.7765 64.3728M41.7652 64.592C41.7691 64.6005 41.7736 64.6073 41.7785 64.6132M41.7652 64.592C41.764 64.6094 41.7634 64.6205 41.7638 64.6207M41.7652 64.592C41.7652 64.5918 41.7652 64.5922 41.7652 64.592ZM41.7652 64.592C41.7655 64.5878 41.7659 64.5827 41.7662 64.5779M41.7765 64.3728C41.7774 64.371 41.7782 64.3691 41.7791 64.3673C41.7808 64.3637 41.7825 64.3602 41.7842 64.3569M41.7765 64.3728C41.7775 64.3706 41.7785 64.3684 41.7795 64.3662C41.7812 64.3627 41.7832 64.3589 41.7849 64.3556M41.7842 64.3569C41.7844 64.3565 41.7846 64.3561 41.7849 64.3556M41.7842 64.3569C41.7564 64.4332 41.7532 64.521 41.7662 64.5779M41.7849 64.3556C41.8081 64.3115 41.8323 64.2968 41.8529 64.3022M41.7849 64.3556C41.785 64.3554 41.7847 64.3559 41.7849 64.3556ZM41.7849 64.3556C41.807 64.3129 41.8301 64.2966 41.8501 64.2995M41.7849 64.3556C41.7883 64.3462 41.7918 64.3375 41.796 64.3285C41.7993 64.3215 41.8025 64.315 41.8057 64.3091M41.7849 64.3556C41.7828 64.3697 41.7714 64.5066 41.7662 64.5779M41.7849 64.3556C41.7849 64.3552 41.7851 64.3546 41.7851 64.3545C41.8059 64.3166 41.8227 64.2991 41.8359 64.2962M41.8529 64.3022C41.8839 64.3103 41.9067 64.3642 41.9059 64.4324M41.8529 64.3022C41.852 64.3012 41.8511 64.3003 41.8501 64.2995M41.8529 64.3022C41.8902 64.3429 41.8716 64.5654 41.8108 64.6163M41.9059 64.4324C41.9055 64.4665 41.8992 64.5042 41.885 64.5416M41.9059 64.4324C41.9061 64.4311 41.9062 64.4298 41.9064 64.4285M41.9059 64.4324C41.8958 64.5077 41.8539 64.5892 41.8108 64.6163M41.885 64.5416C41.8834 64.5458 41.8817 64.55 41.88 64.5541M41.885 64.5416C41.8998 64.5028 41.9062 64.4636 41.9064 64.4285M41.885 64.5416C41.883 64.5467 41.8809 64.5519 41.8787 64.557M41.88 64.5541C41.9497 64.3943 41.9013 64.1633 41.818 64.2885M41.88 64.5541C41.8795 64.5551 41.8791 64.556 41.8787 64.557M41.8689 64.5771C41.8712 64.5729 41.8735 64.5683 41.8757 64.5635C41.8768 64.5613 41.8777 64.5592 41.8787 64.557M41.8689 64.5771C41.8714 64.5725 41.8738 64.5675 41.8763 64.5623C41.8771 64.5605 41.8779 64.5588 41.8787 64.557M41.7785 64.6132C41.7735 64.6037 41.7694 64.5917 41.7662 64.5779M41.8501 64.2995C41.8824 64.3042 41.9068 64.3585 41.9064 64.4285M41.8501 64.2995C41.8492 64.2988 41.8483 64.2982 41.8473 64.2977M41.9064 64.4285C41.913 64.3731 41.902 64.3217 41.8609 64.2989C41.8553 64.2958 41.8494 64.2942 41.8434 64.294M41.7873 64.6266C41.7869 64.6262 41.7866 64.6258 41.7863 64.6254M41.7873 64.6266C41.7799 64.6271 41.772 64.6252 41.7638 64.6207M41.7863 64.6254C41.7786 64.6261 41.771 64.6247 41.7638 64.6207M41.8057 64.3091C41.8089 64.3033 41.812 64.298 41.815 64.2931M41.8057 64.3091C41.7333 64.3661 41.6696 64.5684 41.7638 64.6207M41.8057 64.3091C41.8142 64.3024 41.8227 64.2977 41.8312 64.2955M41.815 64.2931C41.816 64.2915 41.817 64.29 41.818 64.2885M41.815 64.2931C41.821 64.294 41.8264 64.2948 41.8312 64.2955M41.815 64.2931C41.5118 64.2474 39.7389 63.9317 39.5384 63.8868M41.818 64.2885C41.5253 64.2279 39.7613 63.9142 39.5423 63.8839M41.818 64.2885C41.8283 64.2907 41.8369 64.2925 41.8434 64.294M52.4315 73.4426L50.0195 52.0649C49.9828 51.7394 49.5169 49.0859 49.5778 49.6488C52.1566 73.45 54.9267 97.055 57.6007 120.755L59.383 136.552C59.5929 138.412 60.2232 142.62 60.4331 144.48M60.4331 144.48C60.6333 144.776 59.7478 143.864 59.6362 143.675C59.2082 142.95 58.7934 142.19 58.3791 141.432L58.3325 141.346C56.9219 138.764 55.5498 136.053 54.0061 133.81C49.4036 127.122 44.8747 120.256 40.418 113.175C29.8298 96.351 19.6398 79.8241 11.6698 56.8658C9.53259 50.7093 4.12133 35.9739 4.39973 27.0204C5.00598 7.52259 17.6451 8.28756 22.5747 9.14991C23.7084 9.34824 24.8129 9.72523 25.9152 10.1015L26.0097 10.1337C32.1229 12.2194 37.7075 17.0119 43.1189 21.991C45.6339 24.3051 48.6773 25.8395 50.7309 29.5636C51.2214 30.4529 51.4457 32.154 50.8118 33.6926C50.6362 34.1189 49.2101 36.7829 49.2821 36.8794C50.1712 38.0712 51.8577 36.2213 52.8746 36.6887C54.4597 37.4172 55.8248 40.4151 57.0715 42.2523C57.2381 42.4977 58.1417 43.4256 58.6158 44.1612M60.4331 144.48C58.2788 141.294 56.5046 137.115 54.3662 133.878C40.1148 112.311 25.109 91.9052 14.0309 62.717C13.0881 60.2328 12.1688 57.7016 11.2799 55.1132C8.73872 47.713 0.327544 27.3876 7.52172 15.1314C11.3444 8.61898 16.3882 8.8222 20.1693 9.14651C30.8436 10.062 39.87 19.3558 48.8663 27.6344C49.5878 28.2982 51.5622 29.8341 50.9557 32.6849C50.7454 33.6732 48.8417 36.2099 49.1579 37.1458C49.6092 38.4813 52.6249 36.5857 53.6653 37.8881C55.0556 39.6288 56.3491 41.6602 57.6718 43.5932C57.7591 43.7208 58.8343 45.5681 58.9619 45.0864C59.1203 44.4881 57.2472 39.074 57.0026 38.4124C54.7719 32.3791 51.9219 27.363 49.0078 22.9285C39.883 9.04295 28.8062 0.267672 16.1669 1.04811C12.5272 1.27285 6.46935 1.39572 2.94789 8.67078C-1.50982 17.8801 2.85881 35.6261 4.45906 41.6774C5.1026 44.1109 5.76643 46.512 6.48083 48.8263C15.9008 79.3431 29.1397 100.352 42.7177 121.344C46.2671 126.831 49.8895 132.125 53.5285 137.367C54.7496 139.126 55.9735 140.878 57.2003 142.621C57.7892 143.458 59.1457 144.921 59.0742 144.815M58.6158 44.1612C58.792 44.4345 58.9088 44.6813 58.9066 44.8566C58.9019 45.2193 58.7085 44.5254 58.6158 44.1612ZM58.6158 44.1612C58.6067 44.1254 58.5985 44.0927 58.5916 44.0646C58.4157 43.3469 58.2218 42.6554 58.0173 41.9852C57.262 39.5107 56.3657 37.2846 55.424 35.1783C52.7981 29.3052 49.772 24.2782 46.5817 19.8155C38.0799 7.92312 27.5891 0.410132 16.1293 1.38734C12.6079 1.68762 6.44365 1.59975 3.03723 8.88305C-1.4739 18.5283 3.32097 36.7306 4.96826 42.8509C5.63145 45.3149 6.336 47.7109 7.06926 50.0551C8.03686 53.1485 9.05486 56.152 10.1082 59.0867C23.0754 95.2131 41.7563 119.105 59.0742 144.815M59.0742 144.815C59.1485 144.923 61.7036 148.514 61.9736 148.89M59.0742 144.815C58.9978 144.704 61.6935 148.492 61.9733 148.888M41.8359 64.2962C41.8401 64.2952 41.8439 64.2958 41.8473 64.2977M41.8359 64.2962C41.8403 64.2968 41.8441 64.2973 41.8473 64.2977M41.8359 64.2962C41.8344 64.296 41.8328 64.2957 41.8312 64.2955M41.8473 64.2977C41.8568 64.2988 41.8607 64.299 41.8584 64.298C41.8566 64.2972 41.8516 64.2959 41.8434 64.294M41.8312 64.2955C41.8353 64.2944 41.8394 64.2939 41.8434 64.294M39.5384 63.8868C39.5316 63.8853 39.5266 63.8841 39.5235 63.8832M39.5384 63.8868C39.5397 63.886 39.541 63.885 39.5423 63.8839M39.5384 63.8868C39.529 63.8928 39.5204 63.8916 39.5127 63.8849M39.5235 63.8832C39.5222 63.8828 39.5212 63.8825 39.5206 63.8823C39.5187 63.8814 39.521 63.8814 39.527 63.882M39.5235 63.8832C39.5247 63.8829 39.5259 63.8825 39.527 63.882M39.5235 63.8832C39.5199 63.8843 39.5163 63.8849 39.5127 63.8849M39.527 63.882C39.5307 63.8824 39.5358 63.883 39.5423 63.8839M39.527 63.882C39.5459 63.8746 39.5654 63.8527 39.5817 63.8138M39.5423 63.8839C39.5544 63.8737 39.5677 63.8516 39.5817 63.8138M39.5821 63.5599C39.5811 63.5508 39.5804 63.5453 39.5801 63.5452C39.567 63.5408 39.5552 63.5404 39.5448 63.5433M39.5821 63.5599C39.5822 63.5608 39.5824 63.5618 39.5825 63.5629M39.5821 63.5599C39.5715 63.5498 39.559 63.5458 39.5459 63.5486M39.5821 63.5599C39.6081 63.5844 39.6228 63.6446 39.6068 63.7273M39.5825 63.5629C39.5826 63.5645 39.5828 63.5662 39.583 63.5681M39.5825 63.5629C39.5719 63.5523 39.5594 63.5478 39.5462 63.5503M39.5825 63.5629C39.6081 63.5885 39.6221 63.6497 39.6054 63.7333M39.583 63.5681C39.5887 63.6224 39.6005 63.7551 39.5999 63.7569M39.583 63.5681C39.5726 63.5567 39.5601 63.5515 39.5469 63.5534M39.583 63.5681C39.6079 63.5952 39.6211 63.6573 39.6035 63.7417M39.5999 63.7569C39.5978 63.7645 39.5957 63.7717 39.5936 63.7785M39.5999 63.7569C39.6005 63.7549 39.6009 63.7532 39.6015 63.7512M39.5999 63.7569C39.5987 63.7624 39.5713 63.6717 39.5469 63.5534M39.5999 63.7569C39.6011 63.7519 39.6023 63.7468 39.6035 63.7417M39.5936 63.7785C39.592 63.7838 39.5904 63.7888 39.5888 63.7937M39.5936 63.7785C39.5689 63.8548 39.5331 63.8827 39.5041 63.8745M39.5888 63.7937C39.5864 63.8008 39.5841 63.8076 39.5817 63.8138M39.5888 63.7937C39.5925 63.7834 39.596 63.7721 39.5993 63.7598C39.5998 63.7578 39.6003 63.7559 39.6008 63.754M39.5888 63.7937C39.5655 63.8581 39.534 63.8837 39.5073 63.8791M39.5817 63.8138C39.5879 63.7993 39.5935 63.7824 39.5985 63.7629C39.5993 63.7599 39.6001 63.7569 39.6008 63.754M39.5127 63.8849C39.5109 63.8833 39.5091 63.8813 39.5073 63.8791M39.5127 63.8849C39.4759 63.8853 39.446 63.8297 39.4545 63.7395M39.5073 63.8791C39.5062 63.8777 39.5051 63.8761 39.5041 63.8745M39.5073 63.8791C39.4737 63.8734 39.4477 63.8198 39.4553 63.7361M39.5041 63.8745C39.4731 63.8258 39.4635 63.6799 39.4955 63.5983M39.5041 63.8745C39.4724 63.8654 39.4487 63.8134 39.4558 63.734M39.4955 63.5983C39.4964 63.596 39.4973 63.5938 39.4983 63.5916M39.4955 63.5983C39.4911 63.606 39.4868 63.6147 39.4827 63.6245M39.4955 63.5983C39.5118 63.5702 39.5299 63.5559 39.5469 63.5534M39.4983 63.5916C39.4989 63.5902 39.4996 63.5888 39.5002 63.5875M39.4983 63.5916C39.4932 63.6001 39.4882 63.6098 39.4835 63.621M39.4983 63.5916C39.5136 63.5665 39.5303 63.5533 39.5462 63.5503M39.5002 63.5875C39.511 63.5647 39.5257 63.5485 39.5448 63.5433M39.5002 63.5875C39.4946 63.5964 39.4891 63.6069 39.484 63.6191M39.5002 63.5875C39.5148 63.5643 39.5307 63.5518 39.5459 63.5486M39.5448 63.5433C39.5452 63.5451 39.5455 63.5468 39.5459 63.5486M39.5448 63.5433C39.5236 63.4381 39.5052 63.3133 39.5095 63.215C39.604 61.0204 38.8675 59.1428 38.3341 57.8264C37.0169 54.5757 35.3012 52.134 33.5758 49.9193C31.9842 47.8765 30.3168 46.0704 28.6234 44.3511M39.4681 63.6663C39.4683 63.6659 39.4684 63.6655 39.4685 63.6651M39.4681 63.6663C39.4666 63.6721 39.4652 63.6778 39.4639 63.6834M39.4681 63.6663C39.4679 63.667 39.4676 63.6687 39.4674 63.6695C39.4661 63.6742 39.465 63.6788 39.4639 63.6834M39.4681 63.6663C39.4688 63.6639 39.4693 63.6625 39.4699 63.6602M39.4681 63.6663C39.4677 63.6679 39.4674 63.6698 39.467 63.6714M39.4681 63.6663C39.4725 63.6506 39.4775 63.6368 39.4827 63.6245M39.4681 63.6663C39.4673 63.6696 39.4666 63.6732 39.4658 63.6766M39.4685 63.6651C39.4692 63.6623 39.47 63.6597 39.4707 63.657M39.4685 63.6651C39.5641 63.2568 39.3597 64.0959 39.4631 63.6874M39.4707 63.657C39.4748 63.643 39.4793 63.6303 39.484 63.6191M39.4707 63.657C39.4705 63.6581 39.4702 63.6592 39.4699 63.6602M39.4707 63.657C39.5393 63.3863 39.5168 63.484 39.484 63.6191M39.484 63.6191C39.4838 63.6198 39.4837 63.6204 39.4835 63.621M39.5459 63.5486C39.546 63.5491 39.5461 63.5497 39.5462 63.5503M39.6068 63.7273C39.6053 63.735 39.6035 63.743 39.6015 63.7512M39.6068 63.7273C40.6341 59.2077 35.0637 51.4678 34.3253 50.463C33.7677 49.7044 33.193 48.9957 32.616 48.295C31.8046 47.3098 30.9733 46.3807 30.1309 45.4944C29.9979 45.3544 28.755 44.3864 28.5926 44.3005M39.6068 63.7273C39.6063 63.7293 39.6059 63.7313 39.6054 63.7333M39.6015 63.7512C39.6029 63.7451 39.6043 63.7391 39.6054 63.7333M39.6015 63.7512C39.6012 63.7521 39.601 63.753 39.6008 63.754M39.4558 63.734C39.457 63.7215 39.4588 63.7083 39.4616 63.6945M39.4558 63.734C39.4644 63.6993 39.4739 63.6607 39.4827 63.6245M39.4558 63.734C39.4557 63.7347 39.4555 63.7354 39.4553 63.7361M39.4616 63.6945C39.462 63.6922 39.4625 63.6898 39.4631 63.6874M39.4616 63.6945C39.4614 63.6951 39.4613 63.6957 39.4612 63.6963M39.4616 63.6945C39.4619 63.6932 39.4622 63.6918 39.4625 63.6905C39.4636 63.6857 39.4647 63.6811 39.4658 63.6766M39.4631 63.6874C39.4631 63.6869 39.4632 63.6865 39.4633 63.686M39.4631 63.6874C39.4624 63.6902 39.4617 63.6935 39.4612 63.6963M39.4631 63.6874C39.4631 63.6872 39.463 63.6875 39.4631 63.6874ZM39.4631 63.6874C39.4634 63.686 39.4636 63.6848 39.4639 63.6834M39.4631 63.6874C39.4622 63.691 39.4613 63.6952 39.4606 63.6988M39.4631 63.6874C39.4635 63.6856 39.464 63.6838 39.4644 63.682C39.4649 63.6802 39.4653 63.6784 39.4658 63.6766M39.4633 63.686C39.4635 63.6852 39.4637 63.6843 39.4639 63.6834M39.4633 63.686C39.4642 63.6824 39.4651 63.6787 39.466 63.675C39.4664 63.6738 39.4667 63.6726 39.467 63.6714M39.4699 63.6602C39.4741 63.6456 39.4787 63.6326 39.4835 63.621M39.4835 63.621C39.4832 63.6222 39.483 63.6233 39.4827 63.6245M39.5462 63.5503C39.5464 63.5513 39.5467 63.5524 39.5469 63.5534M39.6054 63.7333C39.6048 63.7361 39.6041 63.7389 39.6035 63.7417M39.6008 63.754C39.6017 63.7498 39.6026 63.7458 39.6035 63.7417M39.4553 63.7361C39.4565 63.7235 39.4584 63.7102 39.4612 63.6963M39.4553 63.7361C39.455 63.7372 39.4548 63.7384 39.4545 63.7395M39.4612 63.6963C39.461 63.6971 39.4608 63.6979 39.4606 63.6988M39.467 63.6714C39.4666 63.6731 39.4662 63.6748 39.4658 63.6766M39.4545 63.7395C39.4557 63.7266 39.4577 63.713 39.4606 63.6988M39.4545 63.7395C39.4258 63.8553 39.4081 63.9226 39.4606 63.6988M28.6234 44.3511C28.6167 44.3443 28.6101 44.3376 28.6034 44.3308C28.5995 44.3269 28.596 44.3233 28.593 44.32M28.6234 44.3511C28.6101 44.3283 28.5997 44.3111 28.5926 44.3005M28.6234 44.3511C28.7824 44.6241 29.3523 45.7083 29.4914 46.0899C30.0565 47.6409 30.4796 49.0612 30.6589 51.2306C31.1613 57.3084 31.4326 64.7745 30.4431 71.6074C30.0554 74.2846 29.2848 78.4536 27.7651 79.1879C27.2129 79.4547 26.7878 79.4679 26.2702 79.3628C23.1397 78.7272 27.3614 73.9147 28.3675 71.1387C29.6508 67.598 30.1071 63.5893 29.903 59.9248C29.6007 54.4962 28.2219 50.175 26.7871 46.3671C26.5593 45.7624 24.0575 41.3059 24.9627 39.7051C26.4702 37.0388 29.2809 41.1977 30.0904 41.9984C34.1121 45.9756 39.3331 50.5285 41.5655 59.1944M28.593 44.32C28.5721 44.2976 28.5703 44.2907 28.5839 44.2964M28.593 44.32C31.0204 50.5792 31.4001 59.3137 30.5657 69.0666C30.0893 74.6344 28.092 81.9319 25.4187 78.4385C24.5684 77.3273 27.6336 73.3723 28.1322 72.2023C29.6789 68.5725 30.3252 63.7481 30.0563 59.7915C29.6894 54.3939 28.405 50.0964 26.9687 46.2496C26.6041 45.2733 24.5324 40.8754 25.0187 39.9788C26.3821 37.4648 30.667 42.9823 31.1599 43.4924C31.8667 44.2239 32.5665 44.9784 33.2575 45.7613C34.0102 46.6142 34.7523 47.5012 35.4793 48.4332C36.4188 49.6376 37.3342 50.9164 38.2035 52.3172C39.0446 53.6726 39.8497 55.1404 40.5457 56.8372C40.5748 56.908 41.4103 58.9331 41.5576 59.222M28.593 44.32C28.5907 44.3142 28.5885 44.3084 28.5862 44.3026C28.5853 44.3002 28.5845 44.2981 28.5839 44.2964M28.5839 44.2964C28.5864 44.2974 28.5893 44.2988 28.5926 44.3005M28.5839 44.2964C28.5796 44.2838 28.5829 44.286 28.5926 44.3005M41.5655 59.1944C41.5693 59.2088 41.573 59.2233 41.5767 59.2378C41.5844 59.2679 41.5769 59.2598 41.5576 59.222M41.5655 59.1944C41.5629 59.2036 41.5602 59.2128 41.5576 59.222M41.5655 59.1944C41.6296 58.9729 41.7152 58.7153 41.7584 58.6253C42.3615 57.3689 42.9747 56.1368 43.5978 54.9319C45.4554 51.3395 47.5929 47.3538 49.8281 45.5944C49.8789 45.5544 49.9211 45.6278 49.9108 45.7399C49.8918 45.9464 47.6829 48.3363 47.4192 48.7198C45.3162 51.7788 43.4025 55.6067 41.5519 59.457C41.443 59.6834 41.4826 59.4853 41.5576 59.222M61.995 148.919C59.5374 122.973 56.8994 97.2969 54.3405 71.4529L51.9174 46.9813C51.8801 46.6043 51.4482 43.9032 51.5017 44.4684C53.9593 70.4153 56.6204 96.1644 59.1794 122.009L61.6024 146.48C61.6172 146.629 61.8865 148.42 61.9733 148.888M61.995 148.919C62.0068 149.045 61.9969 149.016 61.9736 148.89M61.995 148.919C62.0002 148.927 61.9925 148.916 61.9736 148.89M61.995 148.919C61.9919 148.915 61.9846 148.904 61.9733 148.888M61.9736 148.89C61.9735 148.89 61.9734 148.889 61.9733 148.888M25.8185 41.5806C25.824 41.5527 25.8294 41.5176 25.8344 41.4743C25.8345 41.4731 25.8085 41.3391 25.8062 41.3316M25.8185 41.5806C25.7979 41.6839 25.7745 41.689 25.7565 41.65M25.8185 41.5806C25.8648 41.502 25.8867 41.3851 25.8062 41.3316M25.8185 41.5806C25.8 41.6119 25.7777 41.6371 25.7565 41.65M25.7565 41.65C25.7385 41.6112 25.7258 41.5289 25.7264 41.4562M25.7565 41.65C25.7149 41.6751 25.6774 41.6527 25.6811 41.5348C25.6812 41.5328 25.702 41.4971 25.7264 41.4562M25.7264 41.4562C25.7272 41.3655 25.7486 41.2897 25.8062 41.3316M25.7264 41.4562C25.761 41.3983 25.8029 41.3297 25.804 41.3305C25.8048 41.3309 25.8055 41.3311 25.8062 41.3316M25.8062 41.3316C25.8062 41.3317 25.8062 41.3314 25.8062 41.3316ZM84.1325 64.5799C84.1299 64.5751 84.1273 64.57 84.1247 64.5645C84.1231 64.561 84.1215 64.5576 84.12 64.5541M84.1325 64.5799C84.1586 64.6275 84.1858 64.6385 84.2075 64.6258M84.1325 64.5799C84.132 64.579 84.1315 64.5781 84.1311 64.5771M84.1325 64.5799C84.165 64.6411 84.1932 64.6492 84.2127 64.6266M84.2075 64.6258C84.2081 64.6255 84.2087 64.6251 84.2093 64.6247M84.2075 64.6258C84.1855 64.6386 84.1576 64.6269 84.1311 64.5771M84.2075 64.6258C84.2011 64.6243 84.1949 64.621 84.1892 64.6163M84.2075 64.6258C84.2076 64.6258 84.2075 64.6258 84.2075 64.6258ZM84.2075 64.6258C84.2092 64.6262 84.211 64.6264 84.2127 64.6266M84.2093 64.6247C84.2134 64.6221 84.2173 64.6186 84.221 64.6143M84.2093 64.6247C84.2137 64.6219 84.2176 64.618 84.2215 64.6132M84.2093 64.6247C84.2027 64.6234 84.1958 64.6204 84.1892 64.6163M84.2093 64.6247C84.2094 64.6247 84.2092 64.6247 84.2093 64.6247ZM84.2093 64.6247C84.2108 64.625 84.2123 64.6252 84.2137 64.6254M84.221 64.6143C84.2261 64.6083 84.2307 64.6007 84.2348 64.592M84.221 64.6143C84.2187 64.6185 84.2163 64.6222 84.2137 64.6254M84.221 64.6143C84.2211 64.6139 84.2213 64.6136 84.2215 64.6132M84.2348 64.592C84.2572 64.5432 84.2605 64.4557 84.2235 64.3728M84.2348 64.592C84.2309 64.6005 84.2264 64.6073 84.2215 64.6132M84.2348 64.592C84.236 64.6094 84.2366 64.6205 84.2362 64.6207M84.2348 64.592C84.2348 64.5918 84.2348 64.5922 84.2348 64.592ZM84.2348 64.592C84.2345 64.5878 84.2341 64.5827 84.2338 64.5779M84.2235 64.3728C84.2226 64.371 84.2218 64.3691 84.2209 64.3673C84.2192 64.3637 84.2175 64.3602 84.2158 64.3569M84.2235 64.3728C84.2225 64.3706 84.2215 64.3684 84.2205 64.3662C84.2188 64.3627 84.2175 64.3602 84.2158 64.3569M84.2158 64.3569C84.2156 64.3565 84.2154 64.3561 84.2151 64.3556M84.2158 64.3569C84.2436 64.4332 84.2468 64.521 84.2338 64.5779M84.2158 64.3569C84.2157 64.3567 84.2159 64.3572 84.2158 64.3569ZM84.2158 64.3569C84.2124 64.3476 84.2082 64.3375 84.204 64.3285C84.2007 64.3215 84.1975 64.315 84.1943 64.3091M84.2151 64.3556C84.1919 64.3115 84.1677 64.2968 84.1471 64.3022M84.2151 64.3556C84.193 64.3129 84.1699 64.2966 84.1499 64.2995M84.2151 64.3556C84.2172 64.3697 84.2286 64.5066 84.2338 64.5779M84.2151 64.3556C84.2151 64.3555 84.2151 64.3558 84.2151 64.3556ZM84.2151 64.3556C84.2151 64.3552 84.2149 64.3546 84.2149 64.3545C84.1941 64.3166 84.1773 64.2991 84.1641 64.2962M84.1471 64.3022C84.1161 64.3103 84.0933 64.3642 84.0941 64.4324M84.1471 64.3022C84.148 64.3012 84.1489 64.3003 84.1499 64.2995M84.1471 64.3022C84.1098 64.3429 84.1284 64.5654 84.1892 64.6163M84.0941 64.4324C84.0945 64.4665 84.1008 64.5042 84.115 64.5416M84.0941 64.4324C84.0939 64.4311 84.0938 64.4298 84.0936 64.4285M84.0941 64.4324C84.1042 64.5077 84.1461 64.5892 84.1892 64.6163M84.115 64.5416C84.1166 64.5458 84.1183 64.55 84.12 64.5541M84.115 64.5416C84.1002 64.5028 84.0938 64.4636 84.0936 64.4285M84.115 64.5416C84.117 64.5467 84.1191 64.5519 84.1213 64.557M84.12 64.5541C84.0503 64.3943 84.0987 64.1633 84.182 64.2885M84.12 64.5541C84.1205 64.5551 84.1209 64.556 84.1213 64.557M84.1311 64.5771C84.1288 64.5729 84.1265 64.5683 84.1243 64.5635C84.1232 64.5613 84.1223 64.5592 84.1213 64.557M84.1311 64.5771C84.1286 64.5725 84.1262 64.5675 84.1237 64.5623C84.1229 64.5605 84.1221 64.5588 84.1213 64.557M84.2215 64.6132C84.2265 64.6037 84.2306 64.5917 84.2338 64.5779M84.1499 64.2995C84.1176 64.3042 84.0932 64.3585 84.0936 64.4285M84.1499 64.2995C84.1508 64.2988 84.1517 64.2982 84.1527 64.2977M84.0936 64.4285C84.087 64.3731 84.098 64.3217 84.1391 64.2989C84.1447 64.2958 84.1506 64.2942 84.1566 64.294M84.2127 64.6266C84.2131 64.6262 84.2134 64.6258 84.2137 64.6254M84.2127 64.6266C84.2201 64.6271 84.228 64.6252 84.2362 64.6207M84.2137 64.6254C84.2214 64.6261 84.229 64.6247 84.2362 64.6207M84.1943 64.3091C84.1911 64.3033 84.188 64.298 84.185 64.2931M84.1943 64.3091C84.2667 64.3661 84.3304 64.5684 84.2362 64.6207M84.1943 64.3091C84.1858 64.3024 84.1773 64.2977 84.1688 64.2955M84.185 64.2931C84.184 64.2915 84.183 64.29 84.182 64.2885M84.185 64.2931C84.179 64.294 84.1736 64.2948 84.1688 64.2955M84.185 64.2931C84.4882 64.2474 86.2611 63.9317 86.4616 63.8868M84.182 64.2885C84.4747 64.2279 86.2387 63.9142 86.4577 63.8839M84.182 64.2885C84.1717 64.2907 84.1631 64.2925 84.1566 64.294M73.5685 73.4426L75.9805 52.0649C76.0172 51.7394 76.4831 49.0859 76.4222 49.6488C73.8434 73.45 71.0733 97.055 68.3993 120.755L66.617 136.552C66.4071 138.412 65.7768 142.62 65.5669 144.48M65.5669 144.48C65.3667 144.776 66.2522 143.864 66.3639 143.675C66.7918 142.95 67.2066 142.19 67.6209 141.432L67.6675 141.346C69.0781 138.764 70.4502 136.053 71.9939 133.81C76.5964 127.122 81.1253 120.256 85.582 113.175C96.1702 96.351 106.36 79.8241 114.33 56.8658C116.467 50.7093 121.879 35.9739 121.6 27.0204C120.994 7.52259 108.355 8.28756 103.425 9.14991C102.292 9.34824 101.187 9.72523 100.085 10.1015L99.9903 10.1337C93.8771 12.2194 88.2925 17.0119 82.8811 21.991C80.3661 24.3051 77.3227 25.8395 75.2691 29.5636C74.7786 30.4529 74.5543 32.154 75.1882 33.6926C75.3638 34.1189 76.7899 36.7829 76.7179 36.8794C75.8288 38.0712 74.1423 36.2213 73.1254 36.6887C71.5403 37.4172 70.1752 40.4151 68.9285 42.2523C68.7619 42.4977 67.8583 43.4256 67.3842 44.1612M65.5669 144.48C67.7212 141.294 69.4954 137.115 71.6338 133.878C85.8853 112.311 100.891 91.9052 111.969 62.717C112.912 60.2328 113.831 57.7016 114.72 55.1132C117.261 47.713 125.672 27.3876 118.478 15.1314C114.656 8.61898 109.612 8.8222 105.831 9.14651C95.1564 10.062 86.13 19.3558 77.1337 27.6344C76.4122 28.2982 74.4378 29.8341 75.0443 32.6849C75.2546 33.6732 77.1583 36.2099 76.8421 37.1458C76.3908 38.4813 73.3751 36.5857 72.3347 37.8881C70.9444 39.6288 69.6509 41.6602 68.3282 43.5932C68.2409 43.7208 67.1657 45.5681 67.0381 45.0864C66.8797 44.4881 68.7528 39.074 68.9974 38.4124C71.2281 32.3791 74.0781 27.363 76.9922 22.9285C86.117 9.04295 97.1938 0.267672 109.833 1.04811C113.473 1.27285 119.531 1.39572 123.052 8.67078C127.51 17.8801 123.141 35.6261 121.541 41.6774C120.897 44.1109 120.234 46.512 119.519 48.8263C110.099 79.3431 96.8603 100.352 83.2823 121.344C79.7329 126.831 76.1105 132.125 72.4715 137.367C71.2504 139.126 70.0265 140.878 68.7997 142.621C68.2108 143.458 66.8543 144.921 66.9258 144.815M67.3842 44.1612C67.208 44.4345 67.0912 44.6813 67.0934 44.8566C67.0981 45.2193 67.2915 44.5254 67.3842 44.1612ZM67.3842 44.1612C67.3933 44.1254 67.4015 44.0927 67.4084 44.0646C67.5843 43.3469 67.7782 42.6554 67.9827 41.9852C68.738 39.5107 69.6343 37.2846 70.576 35.1783C73.2019 29.3052 76.228 24.2782 79.4183 19.8155C87.9201 7.92312 98.4109 0.410132 109.871 1.38734C113.392 1.68762 119.556 1.59975 122.963 8.88305C127.474 18.5283 122.679 36.7306 121.032 42.8509C120.369 45.3149 119.664 47.7109 118.931 50.0551C117.963 53.1485 116.945 56.152 115.892 59.0867C102.925 95.2131 84.2437 119.105 66.9258 144.815M66.9258 144.815C66.8515 144.923 64.2964 148.514 64.0264 148.89M66.9258 144.815C67.0022 144.704 64.3065 148.492 64.0267 148.888M84.1641 64.2962C84.1599 64.2952 84.1561 64.2958 84.1527 64.2977M84.1641 64.2962C84.1597 64.2968 84.1559 64.2973 84.1527 64.2977M84.1641 64.2962C84.1656 64.296 84.1672 64.2957 84.1688 64.2955M84.1527 64.2977C84.1432 64.2988 84.1393 64.299 84.1416 64.298C84.1434 64.2972 84.1484 64.2959 84.1566 64.294M84.1688 64.2955C84.1647 64.2944 84.1606 64.2939 84.1566 64.294M86.4616 63.8868C86.4684 63.8853 86.4734 63.8841 86.4765 63.8832M86.4616 63.8868C86.4603 63.886 86.459 63.885 86.4577 63.8839M86.4616 63.8868C86.471 63.8928 86.4796 63.8916 86.4873 63.8849M86.4765 63.8832C86.4778 63.8828 86.4788 63.8825 86.4794 63.8823C86.4813 63.8814 86.479 63.8814 86.473 63.882M86.4765 63.8832C86.4753 63.8829 86.4741 63.8825 86.473 63.882M86.4765 63.8832C86.4801 63.8843 86.4837 63.8849 86.4873 63.8849M86.473 63.882C86.4693 63.8824 86.4642 63.883 86.4577 63.8839M86.473 63.882C86.4541 63.8746 86.4346 63.8527 86.4183 63.8138M86.4577 63.8839C86.4456 63.8737 86.4323 63.8516 86.4183 63.8138M86.4179 63.5599C86.4189 63.5508 86.4196 63.5453 86.4199 63.5452C86.433 63.5408 86.4448 63.5404 86.4552 63.5433M86.4179 63.5599C86.4178 63.5608 86.4177 63.5618 86.4175 63.5629M86.4179 63.5599C86.4285 63.5498 86.441 63.5458 86.4541 63.5486M86.4179 63.5599C86.3919 63.5844 86.3772 63.6446 86.3932 63.7273M86.4175 63.5629C86.4174 63.5645 86.4172 63.5662 86.417 63.5681M86.4175 63.5629C86.4281 63.5523 86.4406 63.5478 86.4538 63.5503M86.4175 63.5629C86.3919 63.5885 86.3779 63.6497 86.3946 63.7333M86.417 63.5681C86.4113 63.6224 86.3995 63.7551 86.4001 63.7569M86.417 63.5681C86.4274 63.5567 86.4399 63.5515 86.4531 63.5534M86.417 63.5681C86.3921 63.5952 86.3789 63.6573 86.3965 63.7417M86.4001 63.7569C86.4022 63.7645 86.4043 63.7717 86.4064 63.7785M86.4001 63.7569C86.3995 63.7549 86.3991 63.7532 86.3985 63.7512M86.4001 63.7569C86.4013 63.7624 86.4287 63.6717 86.4531 63.5534M86.4001 63.7569C86.3989 63.7519 86.3977 63.7468 86.3965 63.7417M86.4064 63.7785C86.408 63.7838 86.4096 63.7888 86.4112 63.7937M86.4064 63.7785C86.4311 63.8548 86.4669 63.8827 86.4959 63.8745M86.4112 63.7937C86.4136 63.8008 86.4159 63.8076 86.4183 63.8138M86.4112 63.7937C86.4075 63.7834 86.404 63.7721 86.4007 63.7598C86.4002 63.7578 86.3997 63.7559 86.3992 63.754M86.4112 63.7937C86.4345 63.8581 86.466 63.8837 86.4927 63.8791M86.4183 63.8138C86.4121 63.7993 86.4065 63.7824 86.4015 63.7629C86.4007 63.7599 86.3999 63.7569 86.3992 63.754M86.4873 63.8849C86.4891 63.8833 86.4909 63.8813 86.4927 63.8791M86.4873 63.8849C86.5241 63.8853 86.554 63.8297 86.5455 63.7395M86.4927 63.8791C86.4938 63.8777 86.4949 63.8761 86.4959 63.8745M86.4927 63.8791C86.5263 63.8734 86.5523 63.8198 86.5447 63.7361M86.4959 63.8745C86.5269 63.8258 86.5365 63.6799 86.5045 63.5983M86.4959 63.8745C86.5276 63.8654 86.5513 63.8134 86.5442 63.734M86.5045 63.5983C86.5036 63.596 86.5027 63.5938 86.5017 63.5916M86.5045 63.5983C86.5089 63.606 86.5132 63.6147 86.5173 63.6245M86.5045 63.5983C86.4882 63.5702 86.4701 63.5559 86.4531 63.5534M86.5017 63.5916C86.5011 63.5902 86.5005 63.5888 86.4998 63.5875M86.5017 63.5916C86.5068 63.6001 86.5118 63.6098 86.5165 63.621M86.5017 63.5916C86.4864 63.5665 86.4697 63.5533 86.4538 63.5503M86.4998 63.5875C86.489 63.5647 86.4743 63.5485 86.4552 63.5433M86.4998 63.5875C86.5054 63.5964 86.5109 63.6069 86.516 63.6191M86.4998 63.5875C86.4852 63.5643 86.4693 63.5518 86.4541 63.5486M86.4552 63.5433C86.4548 63.5451 86.4545 63.5468 86.4541 63.5486M86.4552 63.5433C86.4764 63.4381 86.4948 63.3133 86.4905 63.215C86.396 61.0204 87.1325 59.1428 87.6659 57.8264C88.9831 54.5757 90.6988 52.134 92.4242 49.9193C94.0158 47.8765 95.6832 46.0704 97.3766 44.3511M86.5319 63.6663C86.5317 63.6659 86.5316 63.6655 86.5315 63.6651M86.5319 63.6663C86.5334 63.6721 86.5348 63.6778 86.5361 63.6834M86.5319 63.6663C86.5321 63.667 86.5324 63.6687 86.5326 63.6695C86.5339 63.6742 86.535 63.6788 86.5361 63.6834M86.5319 63.6663C86.5312 63.6639 86.5307 63.6625 86.5301 63.6602M86.5319 63.6663C86.5323 63.6679 86.5326 63.6698 86.533 63.6714M86.5319 63.6663C86.5275 63.6506 86.5225 63.6368 86.5173 63.6245M86.5319 63.6663C86.5327 63.6696 86.5334 63.6732 86.5342 63.6766M86.5315 63.6651C86.5308 63.6623 86.53 63.6597 86.5293 63.657M86.5315 63.6651C86.4359 63.2568 86.6403 64.0959 86.5369 63.6874M86.5293 63.657C86.5252 63.643 86.5207 63.6303 86.516 63.6191M86.5293 63.657C86.5295 63.6581 86.5298 63.6592 86.5301 63.6602M86.5293 63.657C86.4607 63.3863 86.4832 63.484 86.516 63.6191M86.516 63.6191C86.5162 63.6198 86.5163 63.6204 86.5165 63.621M86.4541 63.5486C86.454 63.5491 86.4539 63.5497 86.4538 63.5503M86.3932 63.7273C86.3947 63.735 86.3965 63.743 86.3985 63.7512M86.3932 63.7273C85.3659 59.2077 90.9363 51.4678 91.6747 50.463C92.2323 49.7044 92.807 48.9957 93.384 48.295C94.1954 47.3098 95.0267 46.3807 95.8691 45.4944C96.0021 45.3544 97.245 44.3864 97.4074 44.3005M86.3932 63.7273C86.3937 63.7293 86.3941 63.7313 86.3946 63.7333M86.3985 63.7512C86.3971 63.7451 86.3957 63.7391 86.3946 63.7333M86.3985 63.7512C86.3988 63.7521 86.399 63.753 86.3992 63.754M86.5442 63.734C86.543 63.7215 86.5412 63.7083 86.5384 63.6945M86.5442 63.734C86.5356 63.6993 86.5261 63.6607 86.5173 63.6245M86.5442 63.734C86.5443 63.7347 86.5445 63.7354 86.5447 63.7361M86.5384 63.6945C86.538 63.6922 86.5375 63.6898 86.5369 63.6874M86.5384 63.6945C86.5386 63.6951 86.5387 63.6957 86.5388 63.6963M86.5384 63.6945C86.5381 63.6932 86.5378 63.6918 86.5375 63.6905C86.5364 63.6857 86.5353 63.6811 86.5342 63.6766M86.5369 63.6874C86.5369 63.6869 86.5368 63.6865 86.5367 63.686M86.5369 63.6874C86.5376 63.6902 86.5383 63.6935 86.5388 63.6963M86.5369 63.6874C86.5369 63.6872 86.537 63.6875 86.5369 63.6874ZM86.5369 63.6874C86.5366 63.686 86.5364 63.6848 86.5361 63.6834M86.5369 63.6874C86.5378 63.691 86.5387 63.6952 86.5394 63.6988M86.5369 63.6874C86.5365 63.6856 86.536 63.6838 86.5356 63.682C86.5351 63.6802 86.5347 63.6784 86.5342 63.6766M86.5367 63.686C86.5365 63.6852 86.5363 63.6843 86.5361 63.6834M86.5367 63.686C86.5358 63.6824 86.5349 63.6787 86.534 63.675C86.5336 63.6738 86.5333 63.6726 86.533 63.6714M86.5301 63.6602C86.5259 63.6456 86.5213 63.6326 86.5165 63.621M86.5165 63.621C86.5168 63.6222 86.517 63.6233 86.5173 63.6245M86.4538 63.5503C86.4536 63.5513 86.4533 63.5524 86.4531 63.5534M86.3946 63.7333C86.3952 63.7361 86.3959 63.7389 86.3965 63.7417M86.3992 63.754C86.3983 63.7498 86.3974 63.7458 86.3965 63.7417M86.5447 63.7361C86.5435 63.7235 86.5416 63.7102 86.5388 63.6963M86.5447 63.7361C86.545 63.7372 86.5452 63.7384 86.5455 63.7395M86.5388 63.6963C86.539 63.6971 86.5392 63.6979 86.5394 63.6988M86.533 63.6714C86.5334 63.6731 86.5338 63.6748 86.5342 63.6766M86.5455 63.7395C86.5443 63.7266 86.5423 63.713 86.5394 63.6988M86.5455 63.7395C86.5742 63.8553 86.5919 63.9226 86.5394 63.6988M97.3766 44.3511C97.3833 44.3443 97.3899 44.3376 97.3966 44.3308C97.4005 44.3269 97.404 44.3233 97.407 44.32M97.3766 44.3511C97.3899 44.3283 97.4003 44.3111 97.4074 44.3005M97.3766 44.3511C97.2176 44.6241 96.6477 45.7083 96.5086 46.0899C95.9435 47.6409 95.5204 49.0612 95.3411 51.2306C94.8387 57.3084 94.5674 64.7745 95.5569 71.6074C95.9446 74.2846 96.7152 78.4536 98.2349 79.1879C98.7871 79.4547 99.2122 79.4679 99.7298 79.3628C102.86 78.7272 98.6386 73.9147 97.6325 71.1387C96.3492 67.598 95.8929 63.5893 96.097 59.9248C96.3993 54.4962 97.7781 50.175 99.2129 46.3671C99.4407 45.7624 101.942 41.3059 101.037 39.7051C99.5298 37.0388 96.7191 41.1977 95.9096 41.9984C91.8879 45.9756 86.6669 50.5285 84.4345 59.1944M97.407 44.32C97.4279 44.2976 97.4297 44.2907 97.4161 44.2964M97.407 44.32C94.9796 50.5792 94.5999 59.3137 95.4343 69.0666C95.9107 74.6344 97.908 81.9319 100.581 78.4385C101.432 77.3273 98.3664 73.3723 97.8678 72.2023C96.3211 68.5725 95.6748 63.7481 95.9437 59.7915C96.3106 54.3939 97.595 50.0964 99.0313 46.2496C99.3959 45.2733 101.468 40.8754 100.981 39.9788C99.6179 37.4648 95.333 42.9823 94.8401 43.4924C94.1333 44.2239 93.4335 44.9784 92.7425 45.7613C91.9898 46.6142 91.2477 47.5012 90.5207 48.4332C89.5812 49.6376 88.6658 50.9164 87.7965 52.3172C86.9554 53.6726 86.1503 55.1404 85.4543 56.8372C85.4252 56.908 84.5897 58.9331 84.4424 59.222M97.407 44.32C97.4093 44.3142 97.4115 44.3084 97.4138 44.3026C97.4147 44.3002 97.4155 44.2981 97.4161 44.2964M97.4161 44.2964C97.4136 44.2974 97.4107 44.2988 97.4074 44.3005M97.4161 44.2964C97.4204 44.2838 97.4171 44.286 97.4074 44.3005M84.4345 59.1944C84.4307 59.2088 84.427 59.2233 84.4233 59.2378C84.4156 59.2679 84.4231 59.2598 84.4424 59.222M84.4345 59.1944C84.4371 59.2036 84.4398 59.2128 84.4424 59.222M84.4345 59.1944C84.3704 58.9729 84.2848 58.7153 84.2416 58.6253C83.6385 57.3689 83.0253 56.1368 82.4022 54.9319C80.5446 51.3395 78.4071 47.3538 76.1719 45.5944C76.1211 45.5544 76.0789 45.6278 76.0892 45.7399C76.1082 45.9464 78.3171 48.3363 78.5808 48.7198C80.6838 51.7788 82.5975 55.6067 84.4481 59.457C84.557 59.6834 84.5174 59.4853 84.4424 59.222M64.005 148.919C66.4626 122.973 69.1006 97.2969 71.6595 71.4529L74.0826 46.9813C74.1199 46.6043 74.5518 43.9032 74.4983 44.4684C72.0407 70.4153 69.3796 96.1644 66.8206 122.009L64.3976 146.48C64.3828 146.629 64.1135 148.42 64.0267 148.888M64.005 148.919C63.9932 149.045 64.0031 149.016 64.0264 148.89M64.005 148.919C63.9998 148.927 64.0075 148.916 64.0264 148.89M64.005 148.919C64.0081 148.915 64.0154 148.904 64.0267 148.888M64.0264 148.89C64.0265 148.89 64.0266 148.889 64.0267 148.888M100.182 41.5806C100.176 41.5527 100.171 41.5176 100.166 41.4743C100.165 41.4731 100.191 41.3391 100.194 41.3316M100.182 41.5806C100.202 41.6839 100.225 41.689 100.244 41.65M100.182 41.5806C100.135 41.502 100.113 41.3851 100.194 41.3316M100.182 41.5806C100.2 41.6119 100.222 41.6371 100.244 41.65M100.244 41.65C100.262 41.6112 100.274 41.5289 100.274 41.4562M100.244 41.65C100.285 41.6751 100.323 41.6527 100.319 41.5348C100.319 41.5328 100.298 41.4971 100.274 41.4562M100.274 41.4562C100.273 41.3655 100.251 41.2897 100.194 41.3316M100.274 41.4562C100.239 41.3983 100.197 41.3297 100.196 41.3305C100.195 41.3309 100.195 41.3311 100.194 41.3316M100.194 41.3316C100.194 41.3317 100.194 41.3314 100.194 41.3316ZM41.8924 64.5252C41.8591 64.5969 42.9429 61.7765 43.5308 60.5319C45.4181 56.5363 47.4326 52.4576 49.6259 49.4317C49.7877 49.2085 48.4125 51.6094 47.7966 52.6676C45.6894 56.288 43.8063 60.4117 41.8924 64.5252ZM49.8416 45.9113C49.8356 45.9155 51.132 44.5365 51.571 44.2324C51.5825 44.2245 50.2832 45.6055 49.8416 45.9113ZM84.1076 64.5252C84.1409 64.5969 83.0571 61.7765 82.4692 60.5319C80.5819 56.5363 78.5674 52.4576 76.3741 49.4317C76.2123 49.2085 77.5875 51.6094 78.2034 52.6676C80.3106 56.288 82.1937 60.4117 84.1076 64.5252ZM76.1584 45.9113C76.1644 45.9155 74.868 44.5365 74.429 44.2324C74.4176 44.2245 75.7168 45.6055 76.1584 45.9113Z" stroke="#98FFB5" stroke-opacity="0.61" stroke-width="2" stroke-linecap="round" stroke-linejoin="round"/>
</svg>
